<svg width="20" height="20" viewBox="0 0 20 20" fill="none" xmlns="http://www.w3.org/2000/svg">
<path d="M7.5 15.8333C3.33334 17.0833 3.33334 13.75 1.66667 13.3333M13.3333 18.3333V15.1083C13.3646 14.711 13.3109 14.3115 13.1759 13.9365C13.0408 13.5615 12.8274 13.2195 12.55 12.9333C15.1667 12.6417 17.9167 11.65 17.9167 7.1C17.9165 5.93652 17.4689 4.81766 16.6667 3.975C17.0466 2.95709 17.0197 1.83196 16.5917 0.833332C16.5917 0.833332 15.6083 0.541666 13.3333 2.06667C11.4233 1.54902 9.41 1.54902 7.5 2.06667C5.225 0.541666 4.24167 0.833332 4.24167 0.833332C3.81365 1.83196 3.78679 2.95709 4.16667 3.975C3.35844 4.82391 2.91044 5.95288 2.91667 7.125C2.91667 11.6417 5.66667 12.6333 8.28334 12.9583C8.00917 13.2416 7.79772 13.5795 7.66276 13.9499C7.5278 14.3204 7.47234 14.7151 7.5 15.1083V18.3333" stroke="#2B2B2C" stroke-opacity="0.7" stroke-width="1.5" stroke-linecap="round" stroke-linejoin="round"/>
</svg>
