<svg width="18" height="18" viewBox="0 0 18 18" fill="none" xmlns="http://www.w3.org/2000/svg">
<g id="Timer">
<path id="Vector" d="M9 2.8125C7.66498 2.8125 6.35994 3.20838 5.2499 3.95008C4.13987 4.69178 3.27471 5.74599 2.76382 6.97939C2.25292 8.21279 2.11925 9.56999 2.3797 10.8794C2.64015 12.1887 3.28303 13.3915 4.22703 14.3355C5.17104 15.2795 6.37377 15.9223 7.68314 16.1828C8.99252 16.4433 10.3497 16.3096 11.5831 15.7987C12.8165 15.2878 13.8707 14.4226 14.6124 13.3126C15.3541 12.2026 15.75 10.8975 15.75 9.5625C15.748 7.77292 15.0361 6.05722 13.7707 4.79179C12.5053 3.52636 10.7896 2.81455 9 2.8125ZM9 15.1875C7.88748 15.1875 6.79995 14.8576 5.87492 14.2395C4.94989 13.6214 4.22892 12.7429 3.80318 11.7151C3.37744 10.6873 3.26604 9.55626 3.48309 8.46512C3.70013 7.37397 4.23586 6.37169 5.02253 5.58502C5.8092 4.79835 6.81148 4.26262 7.90262 4.04558C8.99376 3.82854 10.1248 3.93993 11.1526 4.36568C12.1804 4.79142 13.0589 5.51239 13.677 6.43742C14.2951 7.36244 14.625 8.44998 14.625 9.5625C14.6233 11.0538 14.0302 12.4836 12.9756 13.5381C11.9211 14.5927 10.4913 15.1858 9 15.1875ZM12.2105 6.35203C12.2628 6.40427 12.3043 6.46631 12.3326 6.5346C12.3609 6.60288 12.3754 6.67608 12.3754 6.75C12.3754 6.82392 12.3609 6.89712 12.3326 6.9654C12.3043 7.03369 12.2628 7.09573 12.2105 7.14797L9.39797 9.96047C9.34571 10.0127 9.28367 10.0542 9.21538 10.0825C9.1471 10.1108 9.07391 10.1253 9 10.1253C8.92609 10.1253 8.85291 10.1108 8.78462 10.0825C8.71634 10.0542 8.6543 10.0127 8.60203 9.96047C8.54977 9.90821 8.50832 9.84616 8.48003 9.77788C8.45175 9.7096 8.43719 9.63641 8.43719 9.5625C8.43719 9.48859 8.45175 9.4154 8.48003 9.34712C8.50832 9.27884 8.54977 9.21679 8.60203 9.16453L11.4145 6.35203C11.4668 6.29973 11.5288 6.25824 11.5971 6.22994C11.6654 6.20163 11.7386 6.18706 11.8125 6.18706C11.8864 6.18706 11.9596 6.20163 12.0279 6.22994C12.0962 6.25824 12.1582 6.29973 12.2105 6.35203ZM6.75 1.125C6.75 0.975816 6.80927 0.832742 6.91476 0.727252C7.02024 0.621763 7.16332 0.5625 7.3125 0.5625H10.6875C10.8367 0.5625 10.9798 0.621763 11.0853 0.727252C11.1907 0.832742 11.25 0.975816 11.25 1.125C11.25 1.27418 11.1907 1.41726 11.0853 1.52275C10.9798 1.62824 10.8367 1.6875 10.6875 1.6875H7.3125C7.16332 1.6875 7.02024 1.62824 6.91476 1.52275C6.80927 1.41726 6.75 1.27418 6.75 1.125Z" fill="black"/>
</g>
</svg>
